<svg id="圖層_1" data-name="圖層 1" xmlns="http://www.w3.org/2000/svg" viewBox="0 0 50 50"><defs><style>.cls-1{fill:#ffffff;}</style></defs><path class="cls-1" d="M25,50H8.32A8.22,8.22,0,0,1,0,41.69Q0,30.59,0,19.5a8.26,8.26,0,0,1,8.32-8.32h9.93L11.81,5.23a1.53,1.53,0,0,1-.6-1.66,1.83,1.83,0,0,1,1.45-1.42,2.09,2.09,0,0,1,.34,0,1.89,1.89,0,0,1,1.24.62l8.34,7.66a3.33,3.33,0,0,0,4.41,0L30.74,7c2.34-2.14,4.67-4.27,7-6.42A1.74,1.74,0,0,1,38.93,0a1.88,1.88,0,0,1,1.73,1.38,1.57,1.57,0,0,1-.58,1.72L34.26,8.45l-2.94,2.73H41.66A8.27,8.27,0,0,1,50,19.49q0,11.1,0,22.19A8.22,8.22,0,0,1,41.72,50ZM8.59,14.67a4.74,4.74,0,0,0-5.07,5.06V41.45A4.75,4.75,0,0,0,8.6,46.51H41.4a4.78,4.78,0,0,0,5.11-5.09V19.75a4.77,4.77,0,0,0-5.11-5.08H8.59Z"/><path class="cls-1" d="M20.41,40.76A3.61,3.61,0,0,1,16.87,37V24.22a3.62,3.62,0,0,1,3.57-3.7,3.73,3.73,0,0,1,1.89.53c4,2.33,7.61,4.44,11,6.48a3.68,3.68,0,0,1,1.81,2.78,3.52,3.52,0,0,1-1.15,3,4.7,4.7,0,0,1-.85.61Q27.8,37,22.43,40.18A4,4,0,0,1,20.41,40.76Zm-.05-3.38L31.8,30.64,20.36,23.92Z"/></svg>