<svg width="50" height="50" xmlns="http://www.w3.org/2000/svg" data-name="圖層 1">

 <g>
  <title>Layer 1</title>
  <path stroke="null" id="svg_1" d="m7.18672,45.49068a3.54088,3.54088 0 0 1 -3.54088,-3.54088l0,-25.60058a3.54088,3.54088 0 0 1 3.54088,-3.54088l12.54653,0l-5.72443,-4.72118a1.45176,1.45176 0 0 1 0.99145,-2.58484a1.67602,1.67602 0 0 1 1.03866,0.35409l7.97879,6.53883l9.79644,-8.97023a1.33373,1.33373 0 0 1 0.97964,-0.42491a1.47537,1.47537 0 0 1 1.01505,2.56124l-8.0378,7.24701l14.8599,0a3.72973,3.72973 0 0 1 3.63531,3.54088l0,25.62418a3.54088,3.54088 0 0 1 -3.54088,3.54088l-35.53865,-0.02361zm-0.48392,-3.03336l36.41207,0l0,-26.59202l-36.41207,0l0,26.59202z" opacity="undefined" fill="#fff"/>
  <path id="svg_2" fill="#fff" d="m20.51632,36.25506a1.77,1.77 0 0 1 -1.79,-1.55l0,-11a1.77,1.77 0 0 1 1.79,-1.55a1.59,1.59 0 0 1 0.72,0.17l9.67,5.51a1.35,1.35 0 0 1 0.8,1.1a2,2 0 0 1 -0.88,1.69l-9.64,5.49a1.57,1.57 0 0 1 -0.67,0.14z" class="cls-1"/>
 </g>
</svg>