<svg id="圖層_1" data-name="圖層 1" xmlns="http://www.w3.org/2000/svg" viewBox="0 0 50 50"><defs><style>.cls-1{fill:#fff;}</style></defs><path class="cls-1" d="M45.07,39.35C41.37,32.6,35.68,29,28.15,28.78c-.89,0-1.77-.05-2.66-.05-1.09,0-2.17,0-3.26.05a23.67,23.67,0,0,0-3.39.28A19.46,19.46,0,0,0,2.78,47.7,2.16,2.16,0,0,0,4,49.94l0,0H46l.05,0a2.06,2.06,0,0,0,1.22-2.2A18.76,18.76,0,0,0,45.07,39.35ZM6.44,45.61a17.54,17.54,0,0,1,.6-2.4A15.75,15.75,0,0,1,20.13,32.32a14.11,14.11,0,0,1,2.14-.12h2.14l1.72,0c1.31,0,2.31,0,3.25.13a15.43,15.43,0,0,1,12.5,8.3,15.27,15.27,0,0,1,1.8,5.64,2.48,2.48,0,0,1,0,.27H6.25C6.32,46.21,6.38,45.91,6.44,45.61Z"/><path class="cls-1" d="M25,26.9h0A13.44,13.44,0,1,0,25,0,13.44,13.44,0,0,0,25,26.9ZM25,3.46A10,10,0,0,1,35,13.53,10,10,0,1,1,25,3.46V3.21h0Z"/></svg>