<svg id="圖層_1" data-name="圖層 1" xmlns="http://www.w3.org/2000/svg" viewBox="0 0 50 50"><defs><style>.cls-1{fill:#fff;}</style></defs><path class="cls-1" d="M44.74,22s0,0,0-.07C44.27,16.35,41.49.08,25.09.08S5.91,16.35,5.44,21.92V22A5.5,5.5,0,0,0,0,27.47v8a5.51,5.51,0,0,0,5.49,5.49H8.67a5.51,5.51,0,0,0,5.49-5.49v-8A5.5,5.5,0,0,0,9,22C10.19,8.59,18.42,4.91,22.62,3.9a13.15,13.15,0,0,1,5.06,0C31.92,5,40,8.72,41.23,22a5.5,5.5,0,0,0-5.39,5.49v8a5.52,5.52,0,0,0,4.5,5.4c-1.39,6.71-6.85,5.55-6.85,5.55-.72-3.54-4.62-3.57-4.62-3.57A3.87,3.87,0,0,0,25,45.73c-.34,4.55,3,4.13,3,4.13h4.52c10.71.9,12.22-7.78,12.37-9A5.5,5.5,0,0,0,50,35.43v-8A5.5,5.5,0,0,0,44.74,22Z"/></svg>