<svg id="圖層_1" data-name="圖層 1" xmlns="http://www.w3.org/2000/svg" viewBox="0 0 20 20"><defs><style>.cls-1{fill:#aaa;}</style></defs><path class="cls-1" d="M20,18.38a.83.83,0,0,1-.91.62c-1.22,0-2.44,0-3.66,0-.55,0-.8-.28-.8-.88V1.91c0-.62.26-.9.81-.9,1.23,0,2.45,0,3.67,0a.81.81,0,0,1,.89.65Z"/><path class="cls-1" d="M7.32,12.35V6.63c0-.65.24-.92.81-.92h3.75c.53,0,.79.29.79.87V18.11c0,.59-.26.88-.78.88H8.09c-.52,0-.77-.28-.77-.86Z"/><path class="cls-1" d="M0,14.69V11.27c0-.57.27-.87.77-.87H4.59c.5,0,.76.3.76.86,0,2.29,0,4.59,0,6.88,0,.56-.26.85-.76.85H.75c-.48,0-.75-.3-.75-.84Z"/></svg>