<?xml version="1.0" encoding="utf-8"?>
<!-- Generator: Adobe Illustrator 16.0.0, SVG Export Plug-In . SVG Version: 6.00 Build 0)  -->
<!DOCTYPE svg PUBLIC "-//W3C//DTD SVG 1.1//EN" "http://www.w3.org/Graphics/SVG/1.1/DTD/svg11.dtd">
<svg version="1.1" id="圖層_1" xmlns="http://www.w3.org/2000/svg" xmlns:xlink="http://www.w3.org/1999/xlink" x="0px" y="0px"
	 width="50px" height="50px" viewBox="0 0 50 50" enable-background="new 0 0 50 50" xml:space="preserve">
<g>
	<path d="M43.2,10.5H22.1l-4.1-5.8H1.7C0.8,4.7,0,5.4,0,6.4v5.8v1.6v27.7l8.5-22c0,0,0.5-1.6,2.4-1.6c1.5,0,24.6,0,34,0v-5.8
		C44.9,11.2,44.1,10.5,43.2,10.5z"/>
	<path d="M49.9,20.4c0.2-0.5,0-0.9-0.5-0.9H12.3c-0.8,0-1,0.2-1.2,0.7L1.5,44.1c-0.3,0.7,0.1,1.2,0.8,1.2h37.4
		c0.7,0,1.4-0.5,1.7-1.2L49.9,20.4z"/>
</g>
</svg>
