<svg id="圖層_1" data-name="圖層 1" xmlns="http://www.w3.org/2000/svg" viewBox="0 0 50 50"><defs><style>.cls-1{fill:#fff;}</style></defs><path class="cls-1" d="M22.33,49.72l-.48-.12c-.39-.09-.78-.19-1.17-.27L1.74,45.54A1.85,1.85,0,0,1,0,43.41V2.17A1.92,1.92,0,0,1,2.2,0H35a1.87,1.87,0,0,1,2.13,2.13V14.07a3.86,3.86,0,0,1,0,.51,1.8,1.8,0,0,1-1.66,1.6h-.16a1.77,1.77,0,0,1-1.68-1.25,3.51,3.51,0,0,1-.11-.94V3.66H15.85l.49.49a1.24,1.24,0,0,0,.5.27l6.05,1.82c1.34.41,1.71.9,1.71,2.28V41.87h8.94V31.44a1.89,1.89,0,0,1,1.16-2,1.79,1.79,0,0,1,.68-.13,1.85,1.85,0,0,1,1.79,1.93V43.33c0,1.54-.65,2.19-2.17,2.19H24.6v.81c0,.36,0,.7,0,1a2.06,2.06,0,0,1-1.44,2.35Z"/><path class="cls-1" d="M41.72,31a1.73,1.73,0,0,1-1.4-.75,1.8,1.8,0,0,1,.25-2.38L42,26.42l.73-.72.83-.9h-12a2,2,0,0,1-1.48-.57,1.8,1.8,0,0,1-.47-1.34A1.74,1.74,0,0,1,31,21.27a3.85,3.85,0,0,1,.82-.07H43.59s-.82-.89-.91-1l-.74-.74c-.52-.52-1.06-1.06-1.55-1.61a1.73,1.73,0,0,1,.14-2.39,1.77,1.77,0,0,1,1.23-.5,1.82,1.82,0,0,1,1.15.41,5.51,5.51,0,0,1,.43.41l1.34,1.33c1.34,1.33,2.67,2.66,4,4l.88.93a1.42,1.42,0,0,1,.35.93,1.38,1.38,0,0,1-.24.78l-.27.3-.64.69c-1.79,1.83-3.61,3.64-5.43,5.44l-.16.17a2.08,2.08,0,0,1-1.43.64Z"/></svg>