<svg id="圖層_1" data-name="圖層 1" xmlns="http://www.w3.org/2000/svg" viewBox="0 0 20.29 20.05"><defs><style>.cls-1{fill:#f07f3f;}</style></defs><path class="cls-1" d="M4.41,20l-.35-.08a7,7,0,0,1-.76-.19A4.63,4.63,0,0,1,4,10.81a4.54,4.54,0,0,1,.82-.07,4.74,4.74,0,0,1,.75.06h.1l.06-.09A4.62,4.62,0,0,1,7.58,5.21a4.4,4.4,0,0,1,5.1,0,4.6,4.6,0,0,1,1.8,5.48l0,.09.42,0c.2,0,.41,0,.62,0a4.63,4.63,0,0,1,.6,9.21l-.25.05H15l-.35-.08a6,6,0,0,1-.76-.19,4.59,4.59,0,0,1-3-4.85,7.49,7.49,0,0,1,.15-.8l.09-.45-.34,0c-.19,0-.39,0-.59,0s-.41,0-.62,0l-.36,0,.07.24A4.69,4.69,0,0,1,9,17.49,4.63,4.63,0,0,1,6.2,19.8a6.4,6.4,0,0,1-.63.14L5.26,20Zm11-8.23A3.6,3.6,0,1,0,19,15.38a3.59,3.59,0,0,0-3.59-3.61Zm-10.56,0a3.6,3.6,0,1,0,3.58,3.61,3.6,3.6,0,0,0-3.58-3.61Zm5.28-6.31a3.6,3.6,0,1,0,3.59,3.62,3.61,3.61,0,0,0-3.59-3.62Z"/><path class="cls-1" d="M10.13,3.07a.53.53,0,0,1-.52-.6V1.93c0-.38,0-.76,0-1.14A.69.69,0,0,1,10,.06h.28a.69.69,0,0,1,.37.72c0,.38,0,.77,0,1.15v.53A.53.53,0,0,1,10.13,3.07Z"/><path class="cls-1" d="M7.78,3.46a.52.52,0,0,1-.52-.55V1.4a.52.52,0,1,1,1,0s0,1.33,0,1.51a.51.51,0,0,1-.51.54Z"/><path class="cls-1" d="M12.47,3.46A.52.52,0,0,1,12,2.91q0-.75,0-1.5a.52.52,0,1,1,1,0V2.92a.53.53,0,0,1-.51.54Z"/><path class="cls-1" d="M11.06,9.46c.35,0,.48.17.48.4s-.13.35-.5.43v.65c0,.31-.15.48-.4.47s-.38-.18-.38-.49v-.65H8.8c-.43,0-.6-.29-.39-.67.45-.8.91-1.6,1.37-2.39A1.29,1.29,0,0,1,10,6.9a.59.59,0,0,1,1,.32,1.83,1.83,0,0,1,0,.47Zm-1.69,0h.89V8h0Z"/><path class="cls-1" d="M4.57,14.67A1.57,1.57,0,0,1,5.84,15a1.53,1.53,0,0,1,.34,1.92,1.52,1.52,0,0,1-1.81.71A1.54,1.54,0,0,1,3.32,16a4.39,4.39,0,0,1,1.46-2.78l.09-.07a.38.38,0,0,1,.54,0,.4.4,0,0,1,0,.56c-.22.24-.44.47-.64.71A1.57,1.57,0,0,0,4.57,14.67Zm1,1.51a.75.75,0,1,0-1.5,0,.75.75,0,1,0,1.5,0Z"/><path class="cls-1" d="M14.45,15a1.25,1.25,0,0,1,.16-1.69,1.23,1.23,0,0,1,1.54,0A1.26,1.26,0,0,1,16.37,15a1.53,1.53,0,1,1-1.92,0Zm1.7,1.2a.74.74,0,1,0-1.48,0,.74.74,0,0,0,.72.75A.76.76,0,0,0,16.15,16.2Zm-.75-1.53a.44.44,0,1,0-.42-.45A.44.44,0,0,0,15.4,14.67Z"/></svg>