<svg id="圖層_1" data-name="圖層 1" xmlns="http://www.w3.org/2000/svg" viewBox="0 0 20.29 20.05"><defs><style>.cls-1{fill:#fe5186;}</style></defs><path class="cls-1" d="M14.52,12.33v-7c0-.48.16-.64.64-.64h4.49c.47,0,.64.16.64.64V19.42c0,.46-.16.62-.63.62H15.11c-.42,0-.59-.17-.59-.58Zm4.78,6.74V5.65H15.5V19.07Z"/><path class="cls-1" d="M13.73,14.25v5.17c0,.47-.16.62-.63.62H8.57c-.43,0-.6-.17-.6-.61V9.05c0-.45.16-.61.6-.61h4.57c.43,0,.59.16.59.6ZM9,9.41v9.65h3.8V9.41Z"/><path class="cls-1" d="M9.87,4.81c-.25.29-.48.57-.72.83A8.72,8.72,0,0,1,5.74,8.07a7.89,7.89,0,0,1-3.19.47c-.7,0-1.39-.14-2.08-.22A.49.49,0,0,1,0,7.86a.48.48,0,0,1,.45-.5A9.33,9.33,0,0,0,6.9,2.65L6.28,2.2A.52.52,0,0,1,6,1.66a.55.55,0,0,1,.43-.41L10.19.05c.44-.14.71,0,.75.49.1,1.39.19,2.77.29,4.16a.55.55,0,0,1-.25.57.52.52,0,0,1-.61-.1ZM3.06,7.55v.06c.42-.05.85-.08,1.27-.15A6.67,6.67,0,0,0,8,5.44c.46-.47.87-1,1.29-1.51.26-.31.47-.37.81-.15l.09,0L10,1.12l-2.46.79L7.69,2a.52.52,0,0,1,.18.81A10.69,10.69,0,0,1,3.15,7.5Z"/><path class="cls-1" d="M7.18,16.13v3.28c0,.48-.15.63-.64.63H2c-.43,0-.61-.17-.61-.61V12.81c0-.44.18-.61.62-.61H6.58c.43,0,.6.17.6.59Zm-4.79-3v5.89H6.2V13.17Z"/></svg>